<svg height="512" viewBox="0 0 512 512" width="512" xmlns="http://www.w3.org/2000/svg"><g id="Flat"><path d="m338.5 192v137.77741l-157.94429.71911c-18.06162 14.38048 3.44429 22.35764 3.44429 37.50348 0 32-32 32-32 16 16 0 16-24 0-24-25.18994 0-25.59009-39.66-12.91992-72.14-.99.09-2.02.14-3.08008.14-40 0-32-40-16-40 0 16 24 16 24 0a64.6193 64.6193 0 0 0 -1.05-10.98c-.45-2.64-1.01-5.32007-1.61987-8.08008-2.33013-10.54002-5.33013-22.23992-5.33013-36.93992z" fill="#084c4f"/><path d="m184 144a161.45915 161.45915 0 0 1 -7.12988 48 110.92645 110.92645 0 0 1 -6.63012 16.52c-7.22 14.34-16.5 23.97-27.29 28.5-.45-2.64-1.01-5.32007-1.61987-8.08008 10.23-4.97 17.27-15.1 21.76-24.01a100.08573 100.08573 0 0 0 5.36987-12.92992 151.50794 151.50794 0 0 0 7.54-48 4 4 0 0 1 8 0z" fill="#082f40"/><path d="m440 496h-368c0-99.9 48.98-137.93994 91.33008-158.01 13.96-6.62 27.2-11.29 37.73-15.57007 13.79978-5.60987 22.93992-10.56993 22.93992-18.41993 0-32-56-32-56-88 0-1.09009 0-2.18994-.01-3.28-.03-6.25-.1499-12.46-.28-18.57007-1.56986-70.79993-5.39994-130.14993 96.29-130.14993 112 0 88 80 88 112l3.03-3.03a16.97 16.97 0 0 1 28.97 12v3.54a16.96876 16.96876 0 0 1 -10.66992 15.76l-26.55 10.62c-15.27008 50.34-58.78008 56.13-58.78008 89.11 0 9.75 9.02 15.22 22.67993 20.58 10.51 4.13 23.77 8.20007 37.76 14.11 42.41017 17.89 91.56007 52.68 91.56007 157.31z" fill="#f5a971"/><path d="m293.65991 93.65991c-10.34985 10.34009-34.35986 10.34009-53.65991 10.34009-6.73 0-21.55 1.72-34.41992 8.15991-14.52002 7.26001-21.58008 17.67009-21.58008 31.84009 0 23.6499-5.02 47.15991-13.76 64.52q-1.095 2.17493-2.25 4.2c-.03-6.25-.1499-12.46-.28-18.57007 5.33-14.66993 8.29-32.33987 8.29-50.14993 0-17.25 8.75-30.37 26-39 14.21-7.1001 30.57007-9 38-9 15.92993 0 40 0 48-8a4.00216 4.00216 0 1 1 5.65991 5.65991z" fill="#e37066"/><path d="m182.81524 161.17384 5.664-5.673a8 8 0 0 1 8.18877-1.938l18.37171 6.11738a4.26906 4.26906 0 0 1 1.67487 1.03661 4.2692 4.2692 0 0 1 -3.02359 7.28317h-28.045a4 4 0 0 1 -2.83076-6.82616z" fill="#084c4f"/><path d="m297.18476 161.17384-5.664-5.673a8 8 0 0 0 -8.18877-1.938l-18.37171 6.11738a4.26906 4.26906 0 0 0 -1.67487 1.03661 4.2692 4.2692 0 0 0 3.02364 7.28317h28.045a4 4 0 0 0 2.83071-6.82616z" fill="#084c4f"/><path d="m240 220h-4a16 16 0 0 1 0-32h4a4 4 0 0 1 0 8h-4a8 8 0 0 0 0 16h4a4 4 0 0 1 0 8z" fill="#e37066"/><path d="m440 496h-368c0-132.84009 86.6001-156.3 129.06006-173.58008a161.73092 161.73092 0 0 0 11.11987 43.17008l43.82007 106.41 43.82007-106.41a161.55058 161.55058 0 0 0 10.85986-41.01c42.37012 16.65 129.32007 32.25 129.32007 171.42z" fill="#537ec2"/><path d="m200 368c24 32 88 32 112 0l-56 120z" fill="#e7f2da"/><path d="m336 376h-24l16 24-72 88-72-88 16-24h-24l-12.66992-38.01c13.96-6.62 27.2-11.29 37.73-15.57007a161.73092 161.73092 0 0 0 11.11985 43.17007l43.82007 106.41 43.82007-106.41a161.55058 161.55058 0 0 0 10.85986-41.01c10.51 4.13 23.77 8.20007 37.76 14.11z" fill="#435e99"/><circle cx="214.296" cy="313.102" fill="#e7f2da" r="8"/><circle cx="297.705" cy="313.102" fill="#e7f2da" r="8"/><circle cx="226.628" cy="321.777" fill="#b1cdb4" r="8"/><circle cx="285.372" cy="321.777" fill="#b1cdb4" r="8"/><circle cx="240.964" cy="326.472" fill="#e7f2da" r="8"/><circle cx="271.036" cy="326.472" fill="#e7f2da" r="8"/><circle cx="256" cy="327.999" fill="#b1cdb4" r="8"/><path d="m216 240h64s-8 24-32 24-32-24-32-24z" fill="#ba5457"/><path d="m384 160v128q0 2.5199-.09009 4.86-.16479 4.485-.62988 8.37c-4.09009 34.77-24.90991 34.77-39.28003 34.77-32 0-24 32-16 32-16 0-56-8-56-40 0-16.04 4.02-30.07007 12.06006-40.07007a41.02189 41.02189 0 0 1 5.71-5.85c-7.25006-11.54993-3.4102-26.07993 6.22994-26.07993 0 20 24 20 24 0v-112c0-32-40-48-32-56-8 8-32 8-48 8s-64 8-64 48-16 88-48 88-32-40-16-40c0 16 16 16 16 0s-8-48 0-88 40-80 96-80 67.75 8.25 80 40c56-8 80 56 80 96z" fill="#084c4f"/><path d="m360 272c0 .32007-.46 32-40 32-16.57007 0-26.39014-6.08008-31.72-11.17993a34.82939 34.82939 0 0 1 -4.22-4.89014 41.02189 41.02189 0 0 1 5.71-5.85 26.11683 26.11683 0 0 0 4.04 4.96008c4.27 4.09 12.28 8.96 26.18994 8.96 31.2 0 31.98-23.06006 32-24.04a4.00592 4.00592 0 0 1 4-3.93994h.04a3.98624 3.98624 0 0 1 3.96006 3.97993z" fill="#082f40"/><path d="m320 184c0 56 48 40 48 80s48 40 48 8c0 0-32 16-32-32 0-32-24-24-24-48z" fill="#084c4f"/><path d="m184 368c0 32-32 32-32 16 16 0 16-24 0-24-23.12012 0-25.35986-33.4-15.77-64 .8501-2.75 1.81006-5.47 2.86011-8.14a101.40624 101.40624 0 0 1 12.90989-23.86l7.07007 14.1499 3.73 7.45008s18.77426 44.08554 17.75566 44.89654c-18.06164 14.38048 3.44427 22.35764 3.44427 37.50348z" fill="#084c4f"/><g fill="#0c6c71"><path d="m163.23828 316.00049a4.00033 4.00033 0 0 1 -3.3623-6.16065 110.69339 110.69339 0 0 1 13.2959-16.66845 4.00009 4.00009 0 0 1 5.6582 5.65576 104.38768 104.38768 0 0 0 -12.22168 15.333 3.996 3.996 0 0 1 -3.37012 1.84034z"/><path d="m160 348a3.98686 3.98686 0 0 1 -2.82812-1.17139c-4.96-4.96-6.69727-11.75732-5.02344-19.65771a4 4 0 1 1 7.82617 1.6582c-1.11621 5.26856-.18262 9.30615 2.85351 12.34229a4 4 0 0 1 -2.82812 6.82861z"/><path d="m192 54.68164a4.00071 4.00071 0 0 1 -1.30078-7.78369 53.07928 53.07928 0 0 1 17.30078-2.89795 4 4 0 0 1 0 8 45.08794 45.08794 0 0 0 -14.69922 2.46338 3.99656 3.99656 0 0 1 -1.30078.21826z"/><path d="m144 124a4.0002 4.0002 0 0 1 -4-4c0-18.6582 12.55371-47.604 33.5625-63.74854a4.00027 4.00027 0 1 1 4.875 6.34375c-18.80078 14.44679-30.4375 41.0459-30.4375 57.40479a4.0002 4.0002 0 0 1 -4 4z"/><path d="m231.99512 69.001a4.00033 4.00033 0 0 1 -.51367-7.9668 128.15281 128.15281 0 0 1 16.51855-1.0342 4 4 0 0 1 0 8 120.06932 120.06932 0 0 0 -15.48145.9668 4.04261 4.04261 0 0 1 -.52343.0342z"/><path d="m160 148a4.0002 4.0002 0 0 1 -4-4c0-18.20459 8.8584-53.93164 42.05859-72.36182a3.99982 3.99982 0 0 1 3.88282 6.99414c-29.9502 16.62647-37.94141 48.91211-37.94141 65.36768a4.0002 4.0002 0 0 1 -4 4z"/><path d="m344 196a4.0002 4.0002 0 0 1 -4-4c0-17.36035 0-33.75732-2.07812-47.39746a3.99975 3.99975 0 1 1 7.9082-1.20508c2.16992 14.23877 2.16992 30.93066 2.16992 48.60254a4.0002 4.0002 0 0 1 -4 4z"/><path d="m334.50586 124.001a3.99947 3.99947 0 0 1 -3.52344-2.09961 39.79161 39.79161 0 0 0 -13.20117-14.57325 3.9999 3.9999 0 0 1 4.4375-6.65624 47.62266 47.62266 0 0 1 15.80273 17.42675 4.0021 4.0021 0 0 1 -3.51562 5.90235z"/><path d="m320.00391 322.37939a4.00046 4.00046 0 0 1 -2.085-7.4165 50.02933 50.02933 0 0 1 26.08109-6.96289 4 4 0 0 1 0 8 42.04677 42.04677 0 0 0 -21.91895 5.79492 3.982 3.982 0 0 1 -2.07714.58447z"/><path d="m304 348a4.0002 4.0002 0 0 1 -4-4 31.3524 31.3524 0 0 1 6.21094-18.34082 4.0002 4.0002 0 0 1 6.48828 4.68066 23.41761 23.41761 0 0 0 -4.69922 13.66016 4.0002 4.0002 0 0 1 -4 4z"/></g><path d="m280 176a7.99941 7.99941 0 0 0 -7.59473 5.49658c-.56982-.17541-1.12793-.36255-1.65771-.57751a8.64668 8.64668 0 0 1 -3.238-2.12586 4.00482 4.00482 0 0 1 -.92631-2.79321l.00025-.02234-.00025-.022a2.58335 2.58335 0 1 0 -5.1665.04431 8.88941 8.88941 0 0 0 .69433 3.36536 8.17214 8.17214 0 0 0 2.022 2.82177 11.82466 11.82466 0 0 0 5.39575 2.64844 19.43333 19.43333 0 0 0 2.58105.43128 7.9959 7.9959 0 1 0 7.89012-9.26682z" fill="#084c4f"/><path d="m200 176a7.99941 7.99941 0 0 0 -7.59473 5.49658c-.56982-.17541-1.12793-.36255-1.65771-.57751a8.64668 8.64668 0 0 1 -3.238-2.12586 4.00482 4.00482 0 0 1 -.92631-2.79321l.00025-.02234-.00025-.022a2.58335 2.58335 0 1 0 -5.1665.04431 8.88941 8.88941 0 0 0 .69433 3.36536 8.17214 8.17214 0 0 0 2.022 2.82177 11.82466 11.82466 0 0 0 5.39575 2.64844 19.43333 19.43333 0 0 0 2.58105.43128 7.9959 7.9959 0 1 0 7.89012-9.26682z" fill="#084c4f"/><path d="m371.2 421.6a3.99994 3.99994 0 0 0 -6.3999 4.79992 55.27483 55.27483 0 0 1 3.1899 61.84008l-3.34985 5.58008-1.52003 2.17992h9.5498l2.18018-3.64a63.25362 63.25362 0 0 0 -3.6501-70.76z" fill="#435e99"/><path d="m147.55005 493.82007-3.35005-5.58007a55.2744 55.2744 0 0 1 3.19019-61.84009 4 4 0 0 0 -6.40019-4.79991 63.25315 63.25315 0 0 0 -3.6499 70.76l2.1799 3.64h9.55z" fill="#435e99"/><path d="m383.90991 292.86q-.16479 4.485-.62988 8.37a32.86032 32.86032 0 0 1 -12.79003-8.23c-6.86011-7.16-10.49-17.18994-10.49-29 0-13.99-6.90991-18.5-17.35986-25.32007-7.39014-4.81993-16.33008-10.65993-22.64014-21.25v-33.42993c0 30.35 14.3501 39.72 27.01 47.98 10.8 7.05 20.99 13.7 20.99 32.02 0 9.71 2.85986 17.82007 8.27 23.46a24.82138 24.82138 0 0 0 7.63991 5.4z" fill="#082f40"/><path d="m384 213.64v26.36c0-17.15-7.06006-22.94995-13.29-28.06006-5.51-4.53003-10.71-8.79994-10.71-19.93994a4 4 0 0 1 8 0c0 7.36 2.6001 9.49 7.79 13.75a53.34612 53.34612 0 0 1 8.21 7.89z" fill="#082f40"/><path d="m175.59009 266.53a47.53413 47.53413 0 0 1 -12.79 19.07 39.26336 39.26336 0 0 1 -26.57009 10.4c.8501-2.75 1.81006-5.47 2.86011-8.14a31.996 31.996 0 0 0 19.98-9.71009 38.5312 38.5312 0 0 0 8.92989-14.14991 4.00033 4.00033 0 1 1 7.59009 2.53z" fill="#082f40"/></g></svg>